<?xml version="1.0" encoding="UTF-8" standalone="no"?>
<!-- Created with Inkscape (http://www.inkscape.org/) -->
<svg id="svg3499" xmlns:rdf="http://www.w3.org/1999/02/22-rdf-syntax-ns#" xmlns="http://www.w3.org/2000/svg" height="32px" width="32px" xmlns:cc="http://creativecommons.org/ns#" xmlns:xlink="http://www.w3.org/1999/xlink" xmlns:dc="http://purl.org/dc/elements/1.1/">
 <defs id="defs3501">
  <filter id="filter3374" height="1.2169" width="1.4338" y="-.10843" x="-.21688">
   <feGaussianBlur id="feGaussianBlur3376" stdDeviation="0.99401352"/>
  </filter>
  <linearGradient id="linearGradient3565" y2="-2" gradientUnits="userSpaceOnUse" x2="-229.75" gradientTransform="translate(0,39)" y1="54" x1="-230.11">
   <stop id="stop3549" style="stop-color:#cfcfcf" offset="0"/>
   <stop id="stop3553" style="stop-color:#8e8e92" offset=".46295"/>
   <stop id="stop3557" style="stop-color:#f5f5f5" offset="1"/>
  </linearGradient>
  <filter id="filter4144">
   <feGaussianBlur id="feGaussianBlur4146" stdDeviation="0.7"/>
  </filter>
  <linearGradient id="linearGradient4153" y2="12.927" gradientUnits="userSpaceOnUse" x2="111.59" gradientTransform="matrix(.70002 0 0 .70002 -65.177 5.3745)" y1="17.316" x1="119.74">
   <stop id="stop3247" style="stop-color:#414141" offset="0"/>
   <stop id="stop3249" offset="1"/>
  </linearGradient>
  <filter id="filter4158" height="1.48" width="1.48" y="-.24" x="-.24">
   <feGaussianBlur id="feGaussianBlur4160" stdDeviation="0.66262488"/>
  </filter>
 </defs>
 <metadata id="metadata3504">
  <rdf:RDF>
   <cc:Work rdf:about="">
    <dc:format>image/svg+xml</dc:format>
    <dc:type rdf:resource="http://purl.org/dc/dcmitype/StillImage"/>
   </cc:Work>
  </rdf:RDF>
 </metadata>
 <g id="layer1">
  <path id="path4138" style="opacity:.4;fill-rule:evenodd;filter:url(#filter4144)" d="m16 2c-7.728 0-14 6.272-14 14s6.272 14 14 14 14-6.272 14-14-6.272-14-14-14zm0 1c7.176 0 13 5.824 13 13s-5.824 13-13 13-13-5.824-13-13 5.824-13 13-13z"/>
  <path id="path3539" style="fill-rule:evenodd;fill:url(#linearGradient3565)" d="m-199 65a28 28 0 1 1 -56 0 28 28 0 1 1 56 0z" transform="matrix(.5 0 0 .5 129.5 -16.5)"/>
  <path id="path3541" style="opacity:0.23;fill-rule:evenodd" d="m16 2c-7.728 0-14 6.272-14 14s6.272 14 14 14 14-6.272 14-14-6.272-14-14-14zm0 1c7.176 0 13 5.824 13 13s-5.824 13-13 13-13-5.824-13-13 5.824-13 13-13z"/>
  <path id="path3543" style="fill-opacity:.53731;fill-rule:evenodd;fill:#fff" d="m16 3c-7.176 0-13 5.824-13 13 0 0.167 0.025 0.335 0.0313 0.5 0.2624-6.9452 5.9597-12.5 12.969-12.5 7.009 0 12.706 5.5548 12.969 12.5 0.006-0.165 0.031-0.333 0.031-0.5 0-7.176-5.824-13-13-13z"/>
  <path id="path3545" style="fill-opacity:.34199;fill-rule:evenodd;fill:#fff" d="m16 29c-7.176 0-13-5.824-13-13 0-0.167 0.025-0.335 0.0313-0.5 0.2624 6.945 5.9597 12.5 12.969 12.5 7.009 0 12.706-5.555 12.969-12.5 0.006 0.165 0.031 0.333 0.031 0.5 0 7.176-5.824 13-13 13z"/>
  <path id="path3549" style="fill-rule:evenodd;filter:url(#filter4158);fill:#fff" transform="matrix(.70002 0 0 .70002 92.327 5.3745)" d="m-109 4c-1.66 0-3 1.344-3 3v0.1562 0.1563c0 1.8285 1.48 3.3125 3.31 3.3125s3.31-1.484 3.31-3.3125-1.48-3.3125-3.31-3.3125c-0.05 0-0.1-0.0026-0.15 0-0.06-0.0028-0.11 0-0.16 0z"/>
  <path id="path3551" style="opacity:.67347;fill-rule:evenodd;filter:url(#filter3374);fill:#fff" transform="matrix(.70002 0 0 .70002 92.327 5.3745)" d="m-114 12v2 0.5c0 0.276 0.22 0.5 0.5 0.5h1.5v8h-2v2 0.5c0 0.276 0.22 0.5 0.5 0.5h10c0.28 0 0.5-0.224 0.5-0.5v-2c0-0.276-0.22-0.5-0.5-0.5h-0.5-1v-8.5-2c0-0.276-0.22-0.5-0.5-0.5h-0.5-8z"/>
  <path id="path3553" style="opacity:.15;fill-rule:evenodd;fill:#fff" d="m12.809 13.775c-0.167 0.032-0.287 0.179-0.284 0.35v1.4c0 0.193 0.157 0.35 0.35 0.35h1.05v5.6h-1.05c-0.193 0-0.35 0.157-0.35 0.35v1.4c0 0.193 0.157 0.35 0.35 0.35h7c0.193 0 0.35-0.157 0.35-0.35v-1.4c0-0.193-0.157-0.35-0.35-0.35h-1.05v-5.95-1.4c0-0.194-0.157-0.35-0.35-0.35h-5.6c-0.022-0.002-0.044-0.002-0.066 0z"/>
  <path id="path3555" style="fill-rule:evenodd;fill:url(#linearGradient4153)" d="m12.525 13.775v1.4h1.4v6.3h-1.4v1.4h7v-1.4h-1.4v-6.3-1.4h-5.6z"/>
  <path id="path3557" style="opacity:.56735;fill-rule:evenodd;fill:#606060" d="m13.225 14.497h4.9v1.05 6.3c0 0.193 0.157 0.35 0.35 0.35h1.05v0.7h-6.3v-0.7h1.05c0.193 0 0.35-0.157 0.35-0.35v-6.3c0-0.194-0.157-0.35-0.35-0.35h-1.05v-0.7z"/>
  <path id="path3559" style="opacity:0.43;fill-rule:evenodd;fill:#fff" d="m120 7.5a3.5 3.5 0 1 1 -7 0 3.5 3.5 0 1 1 7 0z" transform="matrix(.66252 0 0 .66252 -60.94 5.5245)"/>
  <path id="path3561" style="fill-rule:evenodd" d="m16.025 8.1746c-1.159 0-2.1 0.9408-2.1 2.1004 0 1.159 0.941 2.1 2.1 2.1s2.1-0.941 2.1-2.1c0-1.1596-0.941-2.1004-2.1-2.1004z"/>
  <path id="path3563" style="opacity:.56735;fill-rule:evenodd;fill:#606060" d="m16.194 8.6818c-0.998 0-1.808 0.8099-1.808 1.8082 0 0.997 0.81 1.807 1.808 1.807 0.997 0 1.807-0.81 1.807-1.807 0-0.9983-0.81-1.8082-1.807-1.8082z"/>
 </g>
</svg>
